HIERARCHY
ROOT Hips
{
 OFFSET 0.000000 0.000000 0.000000
 CHANNELS 6 Xposition Yposition Zposition Yrotation Xrotation Zrotation
 JOINT Chest
 {
  OFFSET 0.000000 9.585900 0.002600
  CHANNELS 3 Yrotation Xrotation Zrotation
  JOINT Chest2
  {
   OFFSET 0.000000 9.601200 -0.005300
   CHANNELS 3 Yrotation Xrotation Zrotation
   JOINT Chest3
   {
    OFFSET 0.000000 9.561800 0.000000
    CHANNELS 3 Yrotation Xrotation Zrotation
    JOINT Chest4
    {
     OFFSET 0.000000 9.552100 0.000000
     CHANNELS 3 Yrotation Xrotation Zrotation
     JOINT Neck
     {
      OFFSET 0.000000 14.453000 0.000000
      CHANNELS 3 Yrotation Xrotation Zrotation
      JOINT Head
      {
       OFFSET 0.000000 8.936500 -0.011300
       CHANNELS 3 Yrotation Xrotation Zrotation
       End Site
       {
        OFFSET 0.000000 17.073600 -0.006000
       }
      }
     }
     JOINT RightCollar
     {
      OFFSET -2.921100 9.558500 0.000000
      CHANNELS 3 Yrotation Xrotation Zrotation
      JOINT RightShoulder
      {
       OFFSET -13.519700 0.000000 0.000000
       CHANNELS 3 Yrotation Xrotation Zrotation
       JOINT RightElbow
       {
        OFFSET 0.000000 -29.696600 0.000000
        CHANNELS 3 Yrotation Xrotation Zrotation
        JOINT RightWrist
        {
         OFFSET 0.000000 -24.004700 0.000000
         CHANNELS 3 Yrotation Xrotation Zrotation
         End Site
         {
          OFFSET 0.000000 -17.728500 0.000000
         }
        }
       }
      }
     }
     JOINT LeftCollar
     {
      OFFSET 2.921100 9.558500 0.000000
      CHANNELS 3 Yrotation Xrotation Zrotation
      JOINT LeftShoulder
      {
       OFFSET 13.519700 0.000000 0.000000
       CHANNELS 3 Yrotation Xrotation Zrotation
       JOINT LeftElbow
       {
        OFFSET 0.000000 -29.696600 0.000000
        CHANNELS 3 Yrotation Xrotation Zrotation
        JOINT LeftWrist
        {
         OFFSET 0.000000 -24.004700 0.000000
         CHANNELS 3 Yrotation Xrotation Zrotation
         End Site
         {
          OFFSET 0.000000 -17.728500 0.000000
         }
        }
       }
      }
     }
    }
   }
  }
 }
 JOINT RightHip
 {
  OFFSET -7.771700 -0.012900 -0.001300
  CHANNELS 3 Yrotation Xrotation Zrotation
  JOINT RightKnee
  {
   OFFSET 0.000000 -40.869800 0.001200
   CHANNELS 3 Yrotation Xrotation Zrotation
   JOINT RightAnkle
   {
    OFFSET 0.000000 -39.717900 0.002100
    CHANNELS 3 Yrotation Xrotation Zrotation
    JOINT RightToe
    {
     OFFSET 0.000000 -4.965400 11.033500
     CHANNELS 3 Yrotation Xrotation Zrotation
     End Site
     {
      OFFSET 0.000000 -1.423100 5.872300
     }
    }
   }
  }
 }
 JOINT LeftHip
 {
  OFFSET 7.771700 -0.012900 -0.001300
  CHANNELS 3 Yrotation Xrotation Zrotation
  JOINT LeftKnee
  {
   OFFSET 0.000000 -40.869800 0.001200
   CHANNELS 3 Yrotation Xrotation Zrotation
   JOINT LeftAnkle
   {
    OFFSET 0.000000 -39.717900 0.002100
    CHANNELS 3 Yrotation Xrotation Zrotation
    JOINT LeftToe
    {
     OFFSET 0.000000 -4.965400 11.033500
     CHANNELS 3 Yrotation Xrotation Zrotation
     End Site
     {
      OFFSET 0.000000 -1.423100 5.872300
     }
    }
   }
  }
 }
}
MOTION
Frames: 15
Frame Time: 0.008333
0.000000 85.388000 0.000000 0.000000 -5.767877 0.000000 0.000000 11.653817 0.000000 0.000000 -5.885947 0.000000 0.000000 -0.000000 0.000000 0.000000 -0.000000 0.000000 0.000000 12.528835 0.000000 0.000000 0.711642 0.000000 0.000000 -0.000000 0.000000 0.000000 0.000000 -90.000000 0.000000 -2.309062 0.000000 0.000000 2.309062 0.000000 0.000000 -0.000000 0.000000 0.000000 -0.000000 90.000000 0.000000 -2.309062 0.000000 0.000000 2.309062 0.000000 0.000000 8.520406 0.000000 0.000000 1.905762 0.000000 -0.000000 -4.658285 0.000000 0.000000 -0.000000 0.000000 0.000000 8.520406 0.000000 0.000000 1.905762 0.000000 -0.000000 -4.658285 0.000000 0.000000 -0.000000 0.000000
-15.112902 57.556876 68.927430 174.685697 -48.020314 0.248680 3.517651 29.411831 6.944317 0.371393 5.716049 0.945594 0.623422 8.917803 1.497257 2.262963 23.531307 4.349080 -0.222056 6.040454 -9.505913 4.586219 -23.913581 -18.963063 4.577827 3.359372 -3.057273 22.196076 -40.362186 -15.779599 -23.620920 -49.252689 31.183161 -1.380652 4.534419 -50.210572 -13.250781 -1.466419 -6.081539 -8.142465 -36.702260 -2.655454 -3.854937 -55.489130 -15.969685 16.120756 -5.414423 24.712474 13.601083 -24.130437 -1.063504 -11.188052 64.425638 -13.512040 4.427827 11.815661 12.023673 0.086005 0.358696 -0.053493 -8.017145 -29.498627 -0.200337 28.156741 56.908429 25.323245 -11.313983 40.245741 0.115773 0.014246 -13.552357 -6.299444
-15.038250 57.552641 68.916351 174.551746 -47.953293 0.129146 3.442382 29.491737 7.008009 0.367023 5.718366 0.942575 0.616357 8.921406 1.492301 2.241415 23.537668 4.332392 -0.192835 5.960616 -9.553623 4.685254 -24.048587 -19.088667 4.510688 3.324386 -3.046340 22.474446 -40.258423 -15.881461 -23.587888 -49.418338 31.290139 -1.442280 5.136600 -49.964099 -13.243510 -1.372359 -6.083413 -7.758232 -36.371686 -2.526030 -3.954421 -56.213274 -16.533313 16.075621 -5.569250 24.329301 13.146738 -24.217165 -0.581570 -11.515689 64.278226 -14.102956 4.427577 11.778767 11.812728 0.214863 0.496833 0.021253 -8.303616 -29.560537 0.005256 27.939841 57.086528 25.221009 -10.806875 40.117116 0.245658 -0.140250 -13.864797 -6.489409
-14.955474 57.540133 68.911002 174.479559 -47.822486 -0.093843 3.347813 29.488911 7.124235 0.362039 5.718823 0.938597 0.608352 8.922227 1.485905 2.217211 23.541611 4.312156 -0.160363 5.889487 -9.592413 4.784631 -24.168263 -19.196878 4.466908 3.310568 -3.026502 22.803494 -40.185446 -16.017723 -23.382610 -49.613622 31.244912 -1.473346 5.808012 -49.719930 -13.239867 -1.265837 -6.089850 -7.417100 -36.078379 -2.403407 -4.076221 -56.888045 -16.999590 16.015581 -5.716687 24.050269 12.739737 -24.375245 -0.120354 -11.747923 64.148221 -14.493536 4.360948 11.725653 11.653773 0.405626 0.646298 0.014357 -8.794295 -29.720042 0.335721 27.848919 57.307676 25.140867 -10.128751 40.055731 0.538817 -0.405852 -14.218702 -6.733247
-14.877459 57.520775 68.910601 174.421216 -47.642893 -0.333560 3.243528 29.424012 7.238658 0.357327 5.717865 0.934304 0.600779 8.920967 1.479055 2.194460 23.543371 4.291293 -0.128091 5.827571 -9.621262 4.876755 -24.272438 -19.283502 4.435160 3.317334 -2.998876 23.145235 -40.142273 -16.179114 -23.033770 -49.829150 31.097567 -1.436285 6.434791 -49.489913 -13.252585 -1.153063 -6.093147 -7.133557 -35.824377 -2.286313 -4.229403 -57.501733 -17.326955 15.965553 -5.878591 23.889434 12.416099 -24.586262 0.263544 -11.834941 64.047145 -14.653901 4.294067 11.679028 11.516170 0.458073 0.785309 0.018054 -9.350029 -29.953313 0.686422 27.869414 57.534461 25.133889 -9.381260 40.044071 0.903898 -0.726091 -14.583535 -6.992123
-14.817593 57.499524 68.910917 174.326792 -47.457997 -0.491282 3.134500 29.349205 7.284435 0.353301 5.716696 0.930902 0.594279 8.919421 1.473503 2.175292 23.544202 4.274576 -0.098460 5.773677 -9.641102 4.957504 -24.363560 -19.349261 4.409059 3.337422 -2.966982 23.478417 -40.123677 -16.358823 -22.575083 -50.059927 30.890585 -1.326756 6.924249 -49.303451 -13.284033 -1.045809 -6.093468 -6.933000 -35.605764 -2.163558 -4.410953 -58.062447 -17.493755 15.956039 -6.067315 23.865919 12.200341 -24.797526 0.518635 -11.741236 63.977200 -14.576331 4.252290 11.666902 11.362163 0.451291 0.873917 0.051066 -9.832493 -30.211627 0.953167 27.976495 57.735776 25.226351 -8.748652 40.076400 1.128506 -0.999345 -14.939392 -7.157982
-14.759046 57.474249 68.917302 174.219950 -47.250606 -0.697972 3.065684 29.244220 7.389760 0.349100 5.717041 0.929248 0.587615 8.919982 1.470571 2.156058 23.546579 4.264449 -0.070917 5.726523 -9.655510 5.029946 -24.443341 -19.401830 4.395123 3.364463 -2.939393 23.862667 -40.127970 -16.577430 -22.056225 -50.293807 30.608543 -1.182734 7.223029 -49.198984 -13.321528 -0.954742 -6.098137 -6.831305 -35.416444 -2.028574 -4.621757 -58.584269 -17.485382 16.007434 -6.284741 23.972668 12.015349 -25.049825 0.767177 -11.486325 63.935143 -14.286620 4.247405 11.639816 11.254359 0.386866 0.960843 0.047807 -10.287141 -30.474656 1.265123 28.147620 57.888645 25.418463 -8.132470 40.123352 1.397785 -1.298473 -15.256987 -7.342018
-14.726316 57.449540 68.923848 174.072037 -47.058678 -0.782128 2.968302 29.159129 7.388239 0.343588 5.719851 0.928887 0.579037 8.924111 1.469633 2.131465 23.552572 4.257868 -0.043257 5.683840 -9.668848 5.101145 -24.514991 -19.451514 4.400793 3.392744 -2.925370 24.122727 -40.141321 -16.760681 -21.465942 -50.562205 30.361982 -1.054515 7.337843 -49.209674 -13.350415 -0.886255 -6.110940 -6.825765 -35.253176 -1.887100 -4.861918 -59.074952 -17.305855 16.122566 -6.525358 24.177502 11.961885 -25.278045 0.848111 -11.123537 63.920646 -13.821651 4.227163 11.653006 11.190641 0.332682 1.002235 -0.002044 -10.587890 -30.718943 1.444050 28.360609 57.982339 25.692078 -7.855556 40.141672 1.440648 -1.408641 -15.471745 -7.470931
-14.706972 57.426209 68.931891 173.851015 -46.885961 -0.783831 2.896255 29.101651 7.358423 0.336268 5.724712 0.928478 0.567624 8.931265 1.468607 2.098870 23.562282 4.249137 -0.013953 5.642926 -9.683410 5.176104 -24.582894 -19.504357 4.426765 3.415244 -2.928525 24.354327 -40.168123 -16.938393 -20.893767 -50.835135 30.126992 -0.976683 7.306979 -49.332801 -13.359283 -0.842938 -6.132321 -6.901655 -35.114913 -1.749712 -5.117928 -59.536977 -16.991553 16.288763 -6.767424 24.437830 12.051405 -25.497722 0.824187 -10.716351 63.930928 -13.223439 4.256292 11.685747 11.107573 0.240795 1.009761 -0.028238 -10.747762 -30.924596 1.565797 28.590714 58.018363 26.019439 -7.776441 40.155106 1.378431 -1.415547 -15.601514 -7.581523
-14.682091 57.403330 68.945085 173.558779 -46.719543 -0.801142 2.902974 29.056590 7.412100 0.327513 5.731658 0.927619 0.553811 8.941486 1.466862 2.059358 23.575786 4.236819 0.016359 5.601847 -9.699392 5.253859 -24.650615 -19.560664 4.470212 3.426846 -2.948414 24.589781 -40.201418 -17.111190 -20.426820 -51.094994 29.921382 -0.956009 7.188078 -49.527232 -13.348470 -0.825082 -6.160882 -7.030089 -35.002156 -1.629745 -5.368806 -59.955976 -16.600506 16.475016 -6.987315 24.702703 12.234239 -25.735583 0.805363 -10.309382 63.950804 -12.539306 4.371444 11.699868 11.084091 0.070793 1.019990 -0.105752 -10.838444 -31.085908 1.751639 28.822355 58.006212 26.378835 -7.712341 40.171152 1.369571 -1.447353 -15.669034 -7.723894
-14.673461 57.384738 68.956938 173.240534 -46.588107 -0.711616 2.878660 29.055239 7.373609 0.317761 5.741960 0.927037 0.538441 8.956621 1.465420 2.014956 23.594527 4.223467 0.045969 5.560161 -9.716417 5.330754 -24.719387 -19.618779 4.527732 3.426600 -2.981987 24.788895 -40.233666 -17.259666 -20.134855 -51.340562 29.815858 -0.974153 7.053510 -49.742667 -13.324814 -0.830266 -6.193220 -7.179677 -34.915363 -1.537509 -5.575807 -60.314943 -16.206593 16.639312 -7.166450 24.926835 12.518811 -25.920437 0.662208 -9.932466 63.964816 -11.832257 4.475783 11.744412 11.031683 -0.066078 1.004184 -0.165516 -10.809841 -31.207705 1.828072 29.027761 57.960080 26.740422 -7.923611 40.165730 1.059214 -1.338153 -15.695803 -7.722136
-14.673102 57.373368 68.965147 172.909672 -46.511926 -0.549177 2.836256 29.112958 7.274992 0.307423 5.756390 0.927168 0.522284 8.977687 1.464933 1.967957 23.619373 4.210871 0.071903 5.518323 -9.733968 5.400822 -24.788958 -19.676242 4.590316 3.411507 -3.024891 24.942352 -40.259491 -17.374865 -20.071176 -51.568314 29.855942 -1.004455 6.966242 -49.940833 -13.295329 -0.856092 -6.224740 -7.326195 -34.853749 -1.477567 -5.715236 -60.607404 -15.863087 16.759920 -7.271659 25.112783 12.843965 -26.028102 0.467635 -9.609103 63.960723 -11.171814 4.538176 11.813241 10.957349 -0.129748 0.968198 -0.191432 -10.690382 -31.272796 1.819723 29.185215 57.892050 27.074870 -8.337006 40.194947 0.597712 -1.079795 -15.766853 -7.692945
-14.654414 57.364532 68.977037 172.603860 -46.449853 -0.486720 2.837160 29.180512 7.283797 0.297167 5.774079 0.927929 0.506367 9.003390 1.465427 1.921542 23.648829 4.199803 0.090609 5.478069 -9.750773 5.455967 -24.857041 -19.728216 4.644166 3.381881 -3.070098 25.038240 -40.276678 -17.444681 -20.251386 -51.768476 30.067687 -1.022138 6.954510 -50.098834 -13.271168 -0.899126 -6.250563 -7.444761 -34.814279 -1.454058 -5.803092 -60.833948 -15.582734 16.832795 -7.360488 25.212898 13.097221 -26.136090 0.401979 -9.375322 63.940898 -10.619032 4.607270 11.870896 10.861737 -0.214212 0.960619 -0.245996 -10.603996 -31.297231 1.903476 29.285567 57.815075 27.368467 -8.628056 40.245594 0.261099 -0.894338 -15.855234 -7.711199
-14.629608 57.357654 68.990362 172.324589 -46.400258 -0.440466 2.837205 29.256736 7.301617 0.287701 5.793603 0.929232 0.491676 9.031852 1.466829 1.878593 23.680590 4.190890 0.100299 5.442128 -9.765051 5.490892 -24.919263 -19.769435 4.681437 3.345902 -3.110721 25.068692 -40.284647 -17.465072 -20.664124 -51.936938 30.460518 -1.017406 7.014973 -50.211444 -13.260881 -0.951846 -6.267862 -7.515097 -34.792353 -1.466330 -5.866654 -61.002806 -15.360373 16.876292 -7.378672 25.261725 13.322645 -26.232651 0.373623 -9.247292 63.913274 -10.190934 4.639689 11.941881 10.740337 -0.231258 0.942429 -0.256160 -10.513365 -31.304312 1.979529 29.328913 57.742750 27.618627 -8.882394 40.289818 -0.061705 -0.720821 -15.941309 -7.728931
-14.599307 57.351459 69.004855 172.065000 -46.357499 -0.398649 2.836046 29.333157 7.317489 0.279436 5.813720 0.930982 0.478784 9.061177 1.469008 1.840944 23.712696 4.184349 0.101432 5.412483 -9.775765 5.505352 -24.971877 -19.797666 4.698918 3.312313 -3.143894 25.038417 -40.284484 -17.443248 -21.273721 -52.077609 31.020343 -0.994235 7.136196 -50.286521 -13.263757 -1.005702 -6.277945 -7.535071 -34.785270 -1.506091 -5.926718 -61.125055 -15.184677 16.890552 -7.351373 25.312627 13.540135 -26.327810 0.364690 -9.237812 63.887217 -9.888793 4.647074 12.028636 10.599089 -0.207341 0.914257 -0.249859 -10.425177 -31.307978 2.037846 29.319154 57.686518 27.822301 -9.045147 40.338642 -0.314435 -0.546914 -16.099888 -7.787419
